<svg id="Layer_1" data-name="Layer 1" xmlns="http://www.w3.org/2000/svg" viewBox="0 0 192 192"><defs><style>.cls-1{fill:#231f20;}</style></defs><path class="cls-1" d="M53.42,115.77h92.63a3.43,3.43,0,0,0,.56-.06l.17,0a2.47,2.47,0,0,0,.36-.11l.2-.09.28-.15.19-.13.25-.21.16-.15a2.75,2.75,0,0,0,.22-.26l.12-.17a2,2,0,0,0,.17-.32l.09-.17a3,3,0,0,0,.14-.45.29.29,0,0,0,0-.09h0l10.35-51a8.72,8.72,0,0,0-1.49-7.59,8.91,8.91,0,0,0-7.19-3.56H48.08L40.43,24a3,3,0,0,0-2.49-2.16L11.61,18.39a3,3,0,1,0-.79,5.95l24.37,3.22,8,28.34a3.24,3.24,0,0,0,.39.84l15.1,53H53.42a10.47,10.47,0,0,0,0,20.94H58.8a15.6,15.6,0,1,0,23.71,0h42.95a15.6,15.6,0,1,0,24.54,0h.33a3,3,0,0,0,0-6H53.42a4.47,4.47,0,0,1,0-8.94Zm90.17-6H127l3.24-24h18.27Zm-22.69,0H107.32v-24h16.82Zm-13.58-30V57.23H128l-3,22.55Zm-6,0H80.24l-3-22.55h24.12Zm0,6v24h-17l-3.24-24Zm51.74-27.37a2.76,2.76,0,0,1,.46,2.45c0,.08,0,.15-.05.22l-3.79,18.7H131l3.05-22.55h16.6A3,3,0,0,1,153.06,58.41ZM71.14,57.23l3,22.55H56.35L49.93,57.23ZM58.05,85.78H75l3.24,24H64.89Zm12.61,64.64a9.6,9.6,0,1,1,9.59-9.6A9.6,9.6,0,0,1,70.66,150.42Zm76.67-10.11a9.6,9.6,0,1,1-9.6-9.6A9.6,9.6,0,0,1,147.33,140.31Z"/></svg>