<?xml version="1.0" encoding="UTF-8"?>
<svg id="Layer_2" data-name="Layer 2" xmlns="http://www.w3.org/2000/svg" viewBox="0 0 135.82 159.77">
  <defs>
    <style>
      .cls-1 {
        fill: #fff;
      }
    </style>
  </defs>
  <path class="cls-1" d="m109.27,23.29h-49.8C55.68,9.74,43.85,0,30.37,0,13.62,0,0,14.64,0,32.64c0,15.75,10.27,28.87,24.12,31.94v90.19c0,2.76,2.08,5,4.65,5h80.5c2.57,0,4.65-2.24,4.65-5V28.29c0-2.76-2.08-5-4.65-5ZM6.51,32.64c0-14.14,10.7-25.64,23.86-25.64,11.72,0,21.86,9.37,23.59,21.83.18,1.23.27,2.52.27,3.81,0,14.14-10.7,25.64-23.86,25.64-.32,0-.63,0-.98-.03-12.83-.55-22.88-11.8-22.88-25.61Zm98.1,117.13H33.42v-84.66c15.12-1.63,27-15.23,27.3-31.82h43.89v116.48Z"/>
  <path class="cls-1" d="m46.67,74.67c-1.26,0-2.27.77-2.27,1.72v3.45c0,.95,1.02,1.72,2.27,1.72h47.34c1.26,0,2.27-.77,2.27-1.72v-3.45c0-.95-1.02-1.72-2.27-1.72h-47.34Z"/>
  <path class="cls-1" d="m46.67,98.41c-1.26,0-2.27.77-2.27,1.72v3.45c0,.95,1.02,1.72,2.27,1.72h47.34c1.26,0,2.27-.77,2.27-1.72v-3.45c0-.95-1.02-1.72-2.27-1.72h-47.34Z"/>
  <path class="cls-1" d="m46.67,122.15c-1.26,0-2.27.77-2.27,1.72v3.45c0,.95,1.02,1.72,2.27,1.72h47.34c1.26,0,2.27-.77,2.27-1.72v-3.45c0-.95-1.02-1.72-2.27-1.72h-47.34Z"/>
  <polygon class="cls-1" points="50.37 29.14 32.03 29.14 32.03 13.26 25.51 13.26 25.51 36.14 50.37 36.14 50.37 29.14"/>
</svg>