<svg id="Layer_1" data-name="Layer 1" xmlns="http://www.w3.org/2000/svg" viewBox="0 0 192 192"><defs><style>.cls-1{fill:#603913;}</style></defs><path class="cls-1" d="M135.28,56.26H130V7.8H62V56.26H56.72A13.83,13.83,0,0,0,42.91,70.07V177.75a5.51,5.51,0,0,0,5.51,5.5h95.16a5.51,5.51,0,0,0,5.51-5.5V70.07A13.83,13.83,0,0,0,135.28,56.26ZM68,13.8h56V56.26h-9.59V34H79.59V56.26H68Zm40.41,42.46H85.59V40h22.82Zm-51.69,6h78.56a7.82,7.82,0,0,1,7.81,7.81v3.18H48.91V70.07A7.82,7.82,0,0,1,56.72,62.26ZM48.91,114V79.25h94.18V114Zm94.18,6v40.28H48.91V120ZM48.91,177.25v-11h94.18v11Z"/></svg>