<?xml version="1.0" encoding="UTF-8"?>
<svg id="Layer_2" data-name="Layer 2" xmlns="http://www.w3.org/2000/svg" viewBox="0 0 145.4 144.26">
  <defs>
    <style>
      .cls-1 {
        fill: #fff;
      }
    </style>
  </defs>
  <g id="Layer_1-2" data-name="Layer 1">
    <path class="cls-1" d="m144.06,135.84c-.07-.07-.14-.14-.21-.21l-38.4-38.4c9.65-11.73,14.39-26.46,13.38-41.69-1.05-15.85-8.22-30.35-20.17-40.81C86.71,4.26,71.4-.92,55.54.13c-15.85,1.05-30.35,8.22-40.81,20.17C4.26,32.26-.92,47.57.13,63.43c1.05,15.85,8.22,30.35,20.17,40.81,22.5,19.69,55.77,19.64,78.17.16l38.27,38.27c.91.98,2.15,1.54,3.48,1.59.06,0,.12,0,.18,0,1.27,0,2.47-.47,3.41-1.34,2.02-1.88,2.13-5.05.24-7.08Zm-35.04-76.37c-.05,27.24-22.25,49.42-49.49,49.44h-2c-26.37-1.04-47.49-22.82-47.49-49.44S32.24,9.98,59.53,9.98s49.49,22.2,49.49,49.49Z"/>
  </g>
</svg>