<?xml version="1.0" encoding="UTF-8"?>
<svg id="Layer_2" data-name="Layer 2" xmlns="http://www.w3.org/2000/svg" viewBox="0 0 151.18 161.45">
  <defs>
    <style>
      .cls-1 {
        fill: #fff;
      }
    </style>
  </defs>
  <g id="Layer_1-2" data-name="Layer 1">
    <path class="cls-1" d="m149.06,72.37L83.81,3.28c-1.95-2.07-4.71-3.27-7.6-3.28-2.83,0-5.57,1.17-7.53,3.21L2.15,72.39c-2.14,2.23-2.75,5.52-1.53,8.37,1.22,2.85,4,4.69,7.1,4.69h2.61v59.63c0,9.02,7.34,16.37,16.36,16.37h32.17c3.01,0,5.47-2.45,5.47-5.47v-32.73c0-.7-.01-1.47-.03-2.3-.09-5.03-.23-12.63,3.09-16,1.36-1.39,3.39-2.06,6.2-2.06h11.81c2.69,0,4.57.6,5.76,1.84,2.78,2.9,2.51,9.64,2.33,14.11-.05,1.16-.09,2.23-.09,3.14v34.04c0,3,2.44,5.43,5.43,5.43h23.01c10.19,0,18.48-8.29,18.48-18.48v-57.52h3.1c3.1,0,5.89-1.84,7.12-4.68,1.23-2.85.65-6.14-1.48-8.4Zm-18.74,9.36v61.24c0,4.68-3.81,8.48-8.48,8.48h-18.45v-29.47c0-.78.04-1.68.08-2.74.25-6.16.63-15.47-5.11-21.44-3.13-3.26-7.5-4.92-12.97-4.92h-11.81c-5.56,0-10.04,1.7-13.33,5.05-6.26,6.37-6.08,16.49-5.96,23.27.01.73.03,1.42.03,2.04v28.2h-27.64c-3.51,0-6.36-2.86-6.36-6.37v-63.36c0-3.46-2.81-6.27-6.27-6.27h-.97L75.89,10.13c.17-.18.42-.23.65.01l61.69,65.31h-1.62c-3.46,0-6.27,2.81-6.27,6.27Z"/>
  </g>
</svg>