<?xml version="1.0" encoding="UTF-8"?>
<svg id="Layer_1" data-name="Layer 1" xmlns="http://www.w3.org/2000/svg" viewBox="0 0 118.6 147.21">
  <defs>
    <style>
      .cls-1 {
        fill: #fff;
      }
    </style>
  </defs>
  <path class="cls-1" d="m115.32,59.2v-.02c-2.16-4.73-5.17-8.75-8.97-11.95-3.78-3.19-8.27-5.6-13.36-7.19-5.37-1.62-10.92-2.44-16.49-2.44h-.6V14.4h28.6V0H22.1v39.66c-2.1.65-3.91,1.48-5.53,2.5-2.55,1.59-4.72,3.48-6.46,5.63-2.03,2.59-3.49,5.17-4.45,7.87-1.2,3.28-1.76,6.57-1.66,9.72-.1,4.2.83,8.67,2.69,12.93,1.72,3.84,4.33,7.26,7.78,10.16,3.44,2.83,7.41,5.01,11.83,6.48,4.67,1.49,9.65,2.25,14.8,2.25,11.02,0,19.63-2.92,25.59-8.67,6.11-5.8,9.21-13.28,9.21-22.23v-14.2h.5c8.07,0,14.48,1.97,19.04,5.85,4.42,3.94,6.57,9.42,6.57,16.75,0,9.9-3.31,17.23-10.11,22.4-6.98,5.31-18.01,8-32.79,8H23.54c-5.81-.22-11.44,1.37-16.3,4.58-4.8,3.31-7.23,8.77-7.23,16.22,0,3.92.75,7.52,2.28,10.98,1.15,2.78,2.81,5.55,4.94,8.24l1.64,2.09,13.29-7.91-1.94-2.69c-.98-1.34-1.86-2.85-2.7-4.63-.71-1.51-1.1-3.28-1.1-4.97v-.14c-.09-1.96.62-3.74,1.96-5,1.4-1.23,3.61-1.85,6.54-1.85h35c18.29,0,32.73-3.87,42.9-11.5,10.49-7.81,15.8-18.85,15.8-32.8,0-5.98-1.07-11.38-3.28-16.5Zm-77.22-21.5V14.4h21.8v23.3h-21.8Zm3.5,44.8c-6.66,0-12.03-1.61-15.99-4.79-3.61-2.78-5.7-7.26-5.61-12.01,0-4.38,1.26-7.63,3.85-9.94,2.84-2.46,6.55-3.66,11.35-3.66h24.7v13c0,5.63-1.53,9.81-4.69,12.77-3.26,3.07-7.84,4.63-13.61,4.63Z"/>
</svg>