<svg width="39" height="39" viewBox="0 0 39 39" fill="none" xmlns="http://www.w3.org/2000/svg">
<path d="M19.5 0.75C9.16875 0.75 0.75 9.16875 0.75 19.5C0.75 29.8313 9.16875 38.25 19.5 38.25C29.8313 38.25 38.25 29.8313 38.25 19.5C38.25 9.16875 29.8313 0.75 19.5 0.75ZM22.8563 25.125C23.4 25.6688 23.4 26.5687 22.8563 27.1125C22.575 27.3937 22.2188 27.525 21.8625 27.525C21.5063 27.525 21.15 27.3937 20.8687 27.1125L14.25 20.4937C13.7062 19.95 13.7062 19.05 14.25 18.5063L20.8687 11.8875C21.4125 11.3438 22.3125 11.3438 22.8563 11.8875C23.4 12.4312 23.4 13.3313 22.8563 13.875L17.2313 19.5L22.8563 25.125Z" fill="#EF3672"/>
</svg>
